<svg width="1920" height="770" viewBox="0 0 1920 770" fill="none" xmlns="http://www.w3.org/2000/svg">
<g clip-path="url(#clip0_259_806)">
<g opacity="0.06">
<path d="M-345.855 529.078C-291.982 534.977 -236.94 543.423 -183.325 551.603C16.5868 581.648 203.097 609.861 275.663 513.34C427.527 311.962 543.764 248.791 640.059 255.317C736.351 261.56 812.128 337.222 883.928 413.502C1052.9 593.083 1224 688.948 1388.67 723.403C1496.26 745.735 1601.54 741.905 1701.45 718.214C1801.37 694.238 1896.49 650.393 1984.04 592.691C2037.7 557.316 2088.73 516.848 2136.31 473.007L2136.33 474.43C2088.75 518.272 2038.28 558.448 1984.9 593.535C1897.06 651.24 1801.95 695.37 1701.75 719.065C1601.55 743.044 1496.27 746.873 1388.4 724.545C1223.45 690.094 1052.06 594.232 882.796 414.085C811.285 338.086 735.511 262.708 640.073 256.456C544.347 249.922 428.391 312.806 276.812 514.181C203.684 611.278 16.8886 583.067 -183.596 552.744C-237.211 544.565 -291.968 536.115 -345.841 530.217L-345.855 529.078Z" fill="#003A5D"/>
<path d="M-345.735 539.039C-300.973 544.763 -255.911 551.907 -211.132 559.054C-14.0564 589.987 174.175 619.318 254.426 522.705C474.041 250.484 601.285 226.748 720.795 293.629C770.666 321.78 819.302 365.602 872.831 413.92L879.738 420.099C1022.06 561.287 1160.32 648.723 1292.39 694.672C1422.46 739.791 1546.63 744.843 1663.34 720.95C1780.05 697.056 1889.01 644.22 1988.93 573.844C2040.59 537.354 2089.63 496.341 2136.06 452.229L2136.08 453.652C2089.93 497.761 2041.17 538.486 1989.8 574.687C1889.87 645.064 1780.63 697.903 1663.64 722.085C1546.64 745.982 1422.19 740.933 1291.83 695.533C1159.48 649.587 1021.22 562.151 878.894 420.963L871.7 414.503C818.458 366.466 769.823 322.644 719.952 294.493C601.299 227.887 474.628 251.9 255.575 523.545C174.762 620.735 -13.7581 591.122 -211.406 559.911C-255.897 553.045 -301.244 545.905 -345.721 540.178L-345.735 539.039Z" fill="#003A5D"/>
<path d="M-345.611 549.287C-310.249 554.555 -274.596 560.388 -238.943 566.222C-44.9877 598.046 145.257 629.062 233.189 532.071C474.072 253.047 585.943 229.211 718.704 309.027C760.567 334.143 804.546 369.481 855.14 410.433C861.848 415.856 868.746 421.371 875.835 426.979C1330.97 848.782 1699.86 775.167 1992.69 554.727C2042.62 517.12 2090.23 475.27 2135.81 430.883L2135.83 432.876C2090.53 476.69 2043.2 518.252 1993.55 555.571C1700.45 776.583 1330.7 850.208 874.707 427.847C867.807 422.237 861.004 416.72 854.297 411.297C803.418 370.349 759.723 335.007 717.86 309.891C585.676 230.638 474.659 254.463 234.053 532.915C145.84 630.193 -44.6896 599.181 -239.214 567.364C-274.867 561.53 -310.236 555.693 -345.598 550.426L-345.611 549.287Z" fill="#003A5D"/>
<path d="M-345.481 560.103C-319.529 564.06 -293.57 568.587 -267.326 573.111C-76.207 605.824 115.769 638.811 211.667 541.44C481.154 250.115 569.72 229.407 729.512 331.955C763.365 353.751 800.417 381.202 842.925 412.573C851.828 419.013 861.021 426.019 871.648 433.862L871.933 433.858C1359.84 858.682 1710.83 763.933 1995.59 535.905C2044.09 497.176 2090.55 454.486 2135.55 409.821L2135.57 411.529C2090.85 455.906 2044.67 498.307 1996.46 536.748C1711.13 765.068 1359.57 860.108 870.805 434.726C861.899 428.001 851.845 420.436 842.082 413.437C799.574 382.066 762.522 354.615 728.672 333.104C569.737 230.83 481.455 251.535 212.816 542.28C116.068 639.946 -76.1935 606.962 -267.597 574.253C-293.556 569.726 -319.512 565.484 -345.467 561.241L-345.481 560.103Z" fill="#003A5D"/>
<path d="M-345.348 571.203C-328.993 574.042 -312.542 576.976 -295.995 580.003C-108.281 613.611 85.7118 648.566 190.43 550.804C529.042 208.262 556.027 227.009 836.458 419.198C846.214 425.628 856.261 432.623 867.742 440.456C1388.99 868.294 1720.65 752.143 1997.36 517.095C2044.7 476.957 2090.57 433.136 2135.29 388.19L2135.31 389.897C2090.87 434.555 2045.28 478.089 1998.51 517.935C1721.23 753.275 1388.72 869.72 866.898 441.32C856.854 434.609 846.234 427.335 835.614 420.062C556.044 228.432 529.063 209.969 191.579 551.644C86.2948 649.698 -107.983 614.746 -296.266 581.145C-312.623 578.115 -328.979 575.181 -345.334 572.341L-345.348 571.203Z" fill="#003A5D"/>
<path d="M-345.21 582.587C-338.363 583.833 -331.516 585.079 -324.67 586.325C-140.639 621.4 55.3704 658.324 169.193 560.168C176.23 553.536 186.926 543.444 197.056 533.644C359.176 380.25 440.236 303.554 520.352 290.349C600.472 277.428 679.083 328.291 836.3 429.731C846.053 435.876 855.805 442.022 863.84 447.334C1418.43 877.902 1729.89 739.79 1998.84 498.004C2045.02 456.456 2090.03 412.076 2135.03 366.557L2135.06 368.549C2090.62 413.492 2045.89 457.584 1999.7 498.847C1730.19 740.925 1418.44 879.325 862.996 448.198C852.379 441.209 843.776 435.904 835.456 430.595C678.524 329.151 599.917 278.573 520.651 291.484C441.1 304.397 360.04 381.094 198.205 534.484C190.324 541.98 182.444 549.476 170.058 561.012C55.6722 659.744 -140.625 622.539 -324.94 587.467C-331.787 586.221 -338.539 584.974 -345.197 583.725L-345.21 582.587Z" fill="#003A5D"/>
<path d="M-345.067 594.543C-167.294 629.978 26.4381 666.929 147.671 569.538C190.204 532.02 227.092 498.554 259.756 468.841C375.485 363.545 437.712 306.717 503.909 295.957C581.755 283.348 664.351 334.163 843.878 444.444L859.937 454.214C1535.17 951.08 1816.97 666.154 2114.52 365.382C2121.27 358.659 2128.02 351.84 2134.77 344.927L2134.8 346.92C2128.42 353.259 2122.05 359.693 2115.67 366.222C1817.56 667.57 1535.19 952.788 859.093 455.078L843.035 445.308C663.795 335.308 581.488 284.775 504.208 297.092C438.295 307.849 376.065 364.392 260.904 469.681C228.241 499.395 191.353 532.86 148.82 570.378C26.7364 668.065 -166.992 631.398 -345.053 595.681L-345.067 594.543Z" fill="#003A5D"/>
<path d="M-344.919 606.781C-179.111 641.507 2.30008 671.775 126.434 578.903C194.083 523.148 247.308 475.253 290.955 435.729C496.245 250.503 497.089 249.639 855.747 460.812L855.75 461.096C1534.99 936.28 1790.6 674.727 2068.99 389.842C2090.64 367.947 2112.29 345.483 2134.52 323.581L2134.54 325.288C2112.59 346.902 2091.22 368.794 2070.14 390.682C1791.18 675.859 1535.29 937.699 854.906 461.961C497.391 251.058 496.262 251.926 291.819 436.572C248.172 476.097 195.231 523.988 127.298 579.747C2.88284 672.906 -178.813 642.642 -344.906 607.92L-344.919 606.781Z" fill="#003A5D"/>
<path d="M-344.769 619.304C-190.65 652.462 -20.9876 676.324 105.201 588.551C193.195 520.311 255.702 463.195 304.411 418.486C475.598 261.567 480.948 256.664 851.844 467.69C1537.98 925.141 1772.15 679.503 2032.18 406.795C2065.36 371.951 2099.09 336.531 2134.26 302.233L2134.28 303.94C2099.39 337.951 2066.22 373.079 2033.05 407.638C1772.74 680.634 1538.29 926.845 851 468.554C480.968 258.371 475.9 262.987 305.56 419.326C256.567 464.039 194.343 521.151 106.061 589.11L106.065 589.395C-20.4048 677.456 -190.349 653.882 -344.755 620.442L-344.769 619.304Z" fill="#003A5D"/>
<path d="M-344.614 632.112C-201.621 663.411 -43.4251 680.579 83.9635 597.916C189.23 522.067 256.495 458.062 307.155 409.913C453.788 270.654 462.797 262.291 847.941 474.568C1543.3 917.106 1759.09 682.222 2001.59 418.834C2044.01 372.493 2087.29 325.571 2134.01 281.455L2134.03 283.163C2087.59 326.991 2044.88 373.621 2002.73 419.39C1759.96 683.35 1543.32 918.814 847.098 475.433C463.099 263.71 454.093 272.359 308.303 410.753C257.359 458.905 190.094 522.91 84.8275 598.76L84.5431 598.763C-42.8421 681.711 -201.322 664.546 -344.601 633.25L-344.614 632.112Z" fill="#003A5D"/>
<path d="M-344.46 644.921C-212.316 673.504 -64.7236 684.822 62.4386 607.001C182.454 526.704 251.93 457.264 302.844 406.55C431.111 278.615 443.487 266.225 843.755 481.452L844.039 481.448C1550.06 911.332 1750.28 683.468 1976.34 426.541C2025.77 370.721 2076.32 313.179 2133.76 260.679L2133.78 262.386C2076.91 314.595 2026.64 371.564 1977.49 427.381C1751.15 684.596 1550.36 912.752 843.196 482.313C443.792 267.929 431.413 280.034 303.989 407.105C252.794 458.107 183.318 527.548 63.306 608.129C-64.4253 685.957 -212.018 674.639 -344.446 646.059L-344.46 644.921Z" fill="#003A5D"/>
<path d="M-344.302 658.013C-222.446 683.305 -85.1684 689.053 41.205 616.65C173.998 533.638 243.704 459.64 294.014 406.087C407.57 285.73 423.029 269.318 839.849 488.046C1558.26 907.248 1744.88 683.817 1955.34 431.633C2010.06 366.355 2066.19 299.352 2133.52 240.755L2133.54 242.463C2066.49 300.772 2010.65 367.487 1956.49 432.473C1745.46 684.949 1558.57 908.668 839.009 489.195C423.334 271.022 408.156 287.146 295.163 406.927C244.853 460.48 174.859 534.197 42.0692 617.494C-84.8701 690.188 -222.148 684.44 -344.289 659.152L-344.302 658.013Z" fill="#003A5D"/>
<path d="M-344.145 671.106C-232.014 692.529 -104.478 692.986 19.9676 626.015C164.135 542.012 232.655 464.043 281.799 408.226C383.733 291.994 401.425 271.855 835.946 494.925C1567.63 904.573 1741.74 683.57 1937.73 434.691C1996.05 360.83 2056.05 284.387 2133.29 221.4L2133.31 223.108C2056.63 285.803 1996.91 361.674 1938.87 435.247C1742.61 684.698 1567.93 906.278 835.106 496.074C401.726 273.275 384.32 293.411 282.945 408.782C233.8 464.598 164.999 542.855 20.5472 626.862C-104.18 694.121 -231.716 693.664 -344.131 672.244L-344.145 671.106Z" fill="#003A5D"/>
<path d="M-343.994 683.628C-241.022 700.891 -122.934 696.908 -1.55366 635.382C153.152 551.821 219.631 469.891 267.037 411.534C359.605 297.692 379.241 273.544 832.044 501.802C1577.86 903.31 1740.88 682.44 1923.22 435.718C1983.72 353.576 2046.18 268.848 2133.06 202.898L2133.08 204.322C2046.77 270.264 1984.59 354.704 1924.37 436.274C1741.74 683.569 1578.45 904.726 831.2 502.666C379.543 274.964 360.192 299.108 268.182 412.089C220.776 470.447 154.016 552.665 -0.689678 636.226C-122.351 698.039 -240.724 702.026 -343.977 685.051L-343.994 683.628Z" fill="#003A5D"/>
<path d="M-343.847 695.867C-249.184 708.676 -139.967 700.814 -22.7913 644.748C141.324 562.497 205.197 476.898 250.58 416.002C335.189 303.111 356.197 274.676 827.856 508.685C1589.24 902.889 1741.71 681.007 1910.69 435.016C1972.52 345.456 2036.3 252.457 2132.85 184.968L2132.86 186.391C2036.89 253.873 1973.38 346.3 1911.83 435.571C1742.58 682.136 1589.83 904.305 827.297 509.546C356.786 276.377 335.775 304.527 252.009 416.554C206.346 477.738 142.188 563.34 -22.2117 645.595C-139.384 701.946 -249.17 709.815 -343.833 697.006L-343.847 695.867Z" fill="#003A5D"/>
<path d="M-343.709 707.253C-257.071 715.604 -155.861 704.707 -44.028 654.114C128.653 574.037 189.636 484.772 232.995 421.339C310.201 308.252 332.58 275.531 823.951 515.281C1601.2 903.315 1743.68 679.277 1900.42 433.433C1962.16 336.188 2026.42 235.497 2132.64 167.892L2132.66 169.315C2027.01 236.913 1963.31 337.028 1901.57 433.988C1744.55 680.405 1601.79 904.732 823.395 516.426C333.17 277.232 310.787 309.668 234.14 421.895C190.5 485.616 129.518 574.881 -43.4484 654.961C-155.563 705.842 -256.772 716.739 -343.696 708.392L-343.709 707.253Z" fill="#003A5D"/>
<path d="M-343.596 716.645C-264.413 720.531 -171.488 707.171 -66.1328 662.349C114.268 585.026 171.516 492.96 212.848 426.704C284.338 311.693 307.797 274.12 820.888 521.01C1613.43 902.597 1746.21 676.114 1890.13 430.139C1951.78 325.21 2015.38 216.556 2132.43 149.959L2132.48 154.798C2017.71 221.367 1954.95 328.303 1894.14 431.799C1749.09 679.495 1615.21 907.985 818.368 524.456C309.567 279.222 286.67 316.22 216.854 428.364C175.24 494.907 117.433 587.835 -64.1025 665.456C-170.305 710.858 -263.796 724.509 -343.552 720.345L-343.596 716.645Z" fill="#003A5D"/>
</g>
</g>
<defs>
<clipPath id="clip0_259_806">
<rect width="1920" height="770" fill="white" transform="matrix(-1 0 0 1 1920 0)"/>
</clipPath>
</defs>
</svg>
