<svg width="19" height="19" viewBox="0 0 19 19" fill="none" xmlns="http://www.w3.org/2000/svg">
<path d="M13.8576 -0.000976562H5.14341C2.30729 -0.000976562 0 2.30631 0 5.14244V13.8568C0 16.6928 2.30729 19 5.14341 19H13.8578C16.6937 19 19.001 16.6928 19.001 13.8568V5.14244C19.001 2.30631 16.6937 -0.000976562 13.8576 -0.000976562ZM17.8871 13.8568C17.8871 16.0785 16.0795 17.8861 13.8576 17.8861H5.14341C2.92152 17.8861 1.11393 16.0785 1.11393 13.8568V5.14244C1.11393 2.92054 2.92152 1.11296 5.14341 1.11296H13.8578C16.0795 1.11296 17.8871 2.92054 17.8871 5.14244V13.8568Z" fill="white"/>
<path d="M9.50014 4.30462C6.63532 4.30462 4.30469 6.63521 4.30469 9.50007C4.30469 12.3649 6.63529 14.6955 9.50014 14.6955C12.365 14.6955 14.6956 12.3649 14.6956 9.50007C14.6956 6.63521 12.365 4.30462 9.50014 4.30462ZM9.50014 13.5816C7.2497 13.5816 5.41862 11.7507 5.41862 9.50007C5.41862 7.24963 7.2497 5.41855 9.50014 5.41855C11.7508 5.41855 13.5817 7.24963 13.5817 9.50007C13.5817 11.7507 11.7508 13.5816 9.50014 13.5816ZM14.8198 2.45947C13.9732 2.45947 13.2847 3.14822 13.2847 3.99466C13.2847 4.84128 13.9732 5.53 14.8198 5.53C15.6665 5.53 16.3551 4.84128 16.3551 3.9947C16.3551 3.14811 15.6664 2.45947 14.8198 2.45947ZM14.8198 4.41595C14.5876 4.41595 14.3986 4.2269 14.3986 3.99466C14.3986 3.76231 14.5876 3.57341 14.8198 3.57341C15.0522 3.57341 15.2412 3.76231 15.2412 3.99466C15.2412 4.2269 15.0522 4.41595 14.8198 4.41595Z" fill="white"/>
</svg>
