<svg width="69" height="68" viewBox="0 0 69 68" fill="none" xmlns="http://www.w3.org/2000/svg">
<ellipse cx="34.3184" cy="34.26" rx="33.7444" ry="33.7444" fill="white"/>
<path d="M25.0267 41.8408C24.3678 42.4997 24.3678 43.568 25.0267 44.2269C25.6856 44.8858 26.7539 44.8858 27.4128 44.2269L26.2197 43.0338L25.0267 41.8408ZM44.7791 26.1616C44.7791 25.2298 44.0238 24.4744 43.0919 24.4744L27.9069 24.4744C26.9751 24.4744 26.2197 25.2298 26.2197 26.1616C26.2197 27.0934 26.9751 27.8488 27.9069 27.8488L41.4047 27.8488L41.4047 41.3466C41.4047 42.2784 42.1601 43.0338 43.0919 43.0338C44.0237 43.0338 44.7791 42.2784 44.7791 41.3466L44.7791 26.1616ZM26.2197 43.0338L27.4128 44.2269L44.285 27.3547L43.0919 26.1616L41.8989 24.9686L25.0267 41.8408L26.2197 43.0338Z" fill="#0356C2"/>
</svg>
