<svg width="38" height="38" viewBox="0 0 38 38" fill="none" xmlns="http://www.w3.org/2000/svg">
<path d="M19 0C8.50725 0 0 8.50606 0 19C0 29.4928 8.50725 38 19 38C29.4928 38 38 29.4928 38 19C38 8.50606 29.4928 0 19 0ZM14.0647 26.4539H10.1888V14.7927H14.0647V26.4539ZM12.1267 13.2003H12.1018C10.8003 13.2003 9.95956 12.3037 9.95956 11.1851C9.95956 10.0415 10.8264 9.17106 12.1517 9.17106C13.4769 9.17106 14.2939 10.0415 14.3189 11.1851C14.3189 12.3049 13.4769 13.2003 12.1267 13.2003ZM28.0404 26.4539H24.1644V20.2148C24.1644 18.6473 23.6039 17.5786 22.2003 17.5786C21.1304 17.5786 20.4927 18.2994 20.2124 18.9964C20.1103 19.2458 20.0842 19.5938 20.0842 19.9417V26.4539H16.2094C16.2094 26.4539 16.2604 15.8876 16.2094 14.7927H20.0854V16.4445C20.5996 15.6501 21.5211 14.5184 23.579 14.5184C26.1286 14.5184 28.0404 16.1856 28.0404 19.7671V26.4539Z" fill="#161C25"/>
</svg>
