<svg width="64" height="64" viewBox="0 0 64 64" fill="none" xmlns="http://www.w3.org/2000/svg">
<circle cx="32" cy="32" r="31" fill="white" stroke="white" stroke-width="2"/>
<path d="M33.5 43H18.8333C17.7333 43 17 42.2667 17 41.1667C17 40.0667 17.7333 39.3333 18.8333 39.3333H33.5C34.6 39.3333 35.3333 40.0667 35.3333 41.1667C35.3333 42.2667 34.6 43 33.5 43ZM44.5 33.8333H18.8333C17.7333 33.8333 17 33.1 17 32C17 30.9 17.7333 30.1667 18.8333 30.1667H44.5C45.6 30.1667 46.3333 30.9 46.3333 32C46.3333 33.1 45.6 33.8333 44.5 33.8333ZM44.5 24.6667H29.8333C28.7333 24.6667 28 23.9333 28 22.8333C28 21.7333 28.7333 21 29.8333 21H44.5C45.6 21 46.3333 21.7333 46.3333 22.8333C46.3333 23.9333 45.6 24.6667 44.5 24.6667Z" fill="#0356C2"/>
</svg>
